<svg viewBox="0 0 100 100" xmlns="http://www.w3.org/2000/svg" width="100" height="100">
  <!-- Center Large Orange Plus -->
  <g>
    <rect x="35" y="20" width="15" height="60" fill="#FF8C1A" rx="2"/>
    <rect x="20" y="35" width="60" height="15" fill="#FF8C1A" rx="2"/>
  </g>
  
  <!-- Top Right Small Gray Plus -->
  <g>
    <rect x="60" y="15" width="8" height="25" fill="#7A8A99" rx="1.5"/>
    <rect x="50" y="25" width="28" height="8" fill="#7A8A99" rx="1.5"/>
  </g>
  
  <!-- Top Left Yellow Plus -->
  <g>
    <rect x="15" y="22" width="10" height="35" fill="#F5A623" rx="2"/>
    <rect x="5" y="32" width="45" height="10" fill="#F5A623" rx="2"/>
  </g>
  
  <!-- Bottom Left Gray Plus -->
  <g>
    <rect x="8" y="55" width="8" height="28" fill="#7A8A99" rx="1.5"/>
    <rect x="0" y="68" width="32" height="8" fill="#7A8A99" rx="1.5"/>
  </g>
  
  <!-- Bottom Center Red Plus -->
  <g>
    <rect x="25" y="60" width="12" height="35" fill="#E84C3D" rx="2"/>
    <rect x="12" y="73" width="50" height="12" fill="#E84C3D" rx="2"/>
  </g>
  
  <!-- Bottom Right Blue Plus -->
  <g>
    <rect x="65" y="58" width="10" height="37" fill="#1E5A96" rx="2"/>
    <rect x="50" y="71" width="45" height="10" fill="#1E5A96" rx="2"/>
  </g>
  
  <!-- Right Blue Plus -->
  <g>
    <rect x="78" y="40" width="9" height="30" fill="#5B7A9F" rx="1.5"/>
    <rect x="68" y="50" width="35" height="9" fill="#5B7A9F" rx="1.5"/>
  </g>
  
  <!-- Bottom Right Small Blue Plus -->
  <g>
    <rect x="60" y="78" width="8" height="22" fill="#4A6BA8" rx="1.5"/>
    <rect x="50" y="87" width="28" height="8" fill="#4A6BA8" rx="1.5"/>
  </g>
</svg>
